<?xml version="1.0" encoding="utf-8"?>
<!-- Generator: Adobe Illustrator 23.0.1, SVG Export Plug-In . SVG Version: 6.00 Build 0)  -->
<svg version="1.1" id="Layer_1" xmlns="http://www.w3.org/2000/svg" xmlns:xlink="http://www.w3.org/1999/xlink" x="0px" y="0px"
	 viewBox="0 0 25 25" style="enable-background:new 0 0 25 25;" xml:space="preserve">
<g>
	<path d="M20.6,4.4c-2.1-2.2-5-3.4-8.1-3.4s-6,1.2-8.1,3.4C2.2,6.5,1,9.4,1,12.5s1.2,6,3.4,8.1c2.2,2.2,5.1,3.4,8.1,3.4
		c3.1,0,6-1.2,8.1-3.4c2.2-2.2,3.4-5.1,3.4-8.1C24,9.4,22.8,6.5,20.6,4.4z M12.5,2.1c2.8,0,5.4,1.1,7.4,3.1S23,9.8,23,12.6
		S21.9,18,19.9,20s-4.6,3.1-7.4,3.1S7.1,22,5.1,20S2,15.4,2,12.6s1.1-5.4,3.1-7.4S9.7,2.1,12.5,2.1z"/>
	<path d="M20,17.3c0,0-2-9.9-2.2-10.4c-0.7-2.3-2.8-4-5.4-4c-2.5,0-4.7,1.7-5.4,4C6.9,7.4,5,17.3,5,17.3S4.8,18,4.8,18.4
		c0,1.1,1.1,1.1,1.1,1.1s0.6,0,1.1-0.6c0.6-0.6,1.1-0.6,1.1-0.6s0.6,0,1.1,0.6c0.6,0.6,1.1,0.6,1.1,0.6s0.6,0,1.1-0.6
		c0.6-0.6,1.1-0.6,1.1-0.6s0.6,0,1.1,0.6c0.6,0.6,1.1,0.6,1.1,0.6s0.6,0,1.1-0.6c0.6-0.6,1.1-0.6,1.1-0.6s0.6,0,1.1,0.6
		c0.6,0.6,1.1,0.6,1.1,0.6s1.1,0,1.1-1.1C20.2,18,20,17.3,20,17.3z M10.5,11c-0.6,0-1.1-0.6-1.1-1.4c0-0.8,0.5-1.4,1.1-1.4
		s1.1,0.6,1.1,1.4S11.1,11,10.5,11z M14.5,11c-0.6,0-1.1-0.6-1.1-1.4c0-0.8,0.5-1.4,1.1-1.4s1.1,0.6,1.1,1.4S15.1,11,14.5,11z"/>
</g>
</svg>
