<svg viewBox="0 0 25 25"><g><path d="M20.6,4.4C18.5,2.2,15.6,1,12.5,1c-3.1,0-6,1.2-8.1,3.4C2.2,6.5,1,9.4,1,12.5c0,3.1,1.2,6,3.4,8.1c2.2,2.2,5.1,3.4,8.1,3.4 c3.1,0,6-1.2,8.1-3.4c2.2-2.2,3.4-5.1,3.4-8.1C24,9.4,22.8,6.5,20.6,4.4z M12.5,2.1c2.8,0,5.4,1.1,7.4,3.1c2,2,3.1,4.6,3.1,7.4 c0,2.8-1.1,5.4-3.1,7.4c-2,2-4.6,3.1-7.4,3.1s-5.4-1.1-7.4-3.1c-2-2-3.1-4.6-3.1-7.4c0-2.8,1.1-5.4,3.1-7.4 C7.1,3.2,9.7,2.1,12.5,2.1z"></path><path d="M20,17.3c0,0-2-9.9-2.2-10.4c-0.7-2.3-2.8-4-5.4-4c-2.5,0-4.7,1.7-5.4,4C6.9,7.4,5,17.3,5,17.3S4.8,18,4.8,18.4 c0,1.1,1.1,1.1,1.1,1.1s0.6,0,1.1-0.6c0.6-0.6,1.1-0.6,1.1-0.6s0.6,0,1.1,0.6c0.6,0.6,1.1,0.6,1.1,0.6s0.6,0,1.1-0.6 c0.6-0.6,1.1-0.6,1.1-0.6s0.6,0,1.1,0.6c0.6,0.6,1.1,0.6,1.1,0.6s0.6,0,1.1-0.6c0.6-0.6,1.1-0.6,1.1-0.6s0.6,0,1.1,0.6 c0.6,0.6,1.1,0.6,1.1,0.6s1.1,0,1.1-1.1C20.2,18,20,17.3,20,17.3z M10.5,11c-0.6,0-1.1-0.6-1.1-1.4c0-0.8,0.5-1.4,1.1-1.4 c0.6,0,1.1,0.6,1.1,1.4C11.6,10.4,11.1,11,10.5,11z M14.5,11c-0.6,0-1.1-0.6-1.1-1.4c0-0.8,0.5-1.4,1.1-1.4c0.6,0,1.1,0.6,1.1,1.4 C15.6,10.4,15.1,11,14.5,11z"></path></g></svg>
