<?xml version="1.0" encoding="utf-8"?>
<!-- Generator: Adobe Illustrator 20.1.0, SVG Export Plug-In . SVG Version: 6.00 Build 0)  -->
<svg version="1.1" id="Layer_1" xmlns="http://www.w3.org/2000/svg" xmlns:xlink="http://www.w3.org/1999/xlink" x="0px" y="0px"
	 viewBox="0 0 48 48" style="enable-background:new 0 0 48 48;" xml:space="preserve">
<style type="text/css">
	.st0{fill:none;stroke:#7c5ea3;stroke-width:0.75;stroke-linejoin:round;stroke-miterlimit:10;}
	.st1{fill:#7c5ea3;}
</style>
<circle id="circle_1_" class="st0" cx="24" cy="23" r="11"/>
<g>
	<polygon class="st1" points="20.2,25.8 18,20.4 18.9,20.4 20.6,24.7 22.3,20.4 23.2,20.4 21,25.8 	"/>
	<path class="st1" d="M22.9,20.6l-2,5h-0.5l-2-5h0.5l1.8,4.5l1.8-4.5H22.9 M23.4,20.3h-0.5h-0.5h-0.2l-0.1,0.2l-1.5,3.8l-1.5-3.8
		L19,20.3h-0.2h-0.5h-0.5l0.2,0.5l2,5l0.1,0.2h0.2h0.5h0.2l0.1-0.2l2-5L23.4,20.3L23.4,20.3z"/>
</g>
<g>
	<path class="st1" d="M28.9,25.8l-1.4-2.1h-0.8v2.1h-0.8v-5.3h2c1,0,1.7,0.7,1.7,1.6c0,0.8-0.5,1.4-1.3,1.6l1.5,2.1H28.9z M27.9,23
		c0.6,0,0.9-0.4,0.9-0.9c0-0.5-0.4-0.9-0.9-0.9h-1.2V23H27.9z"/>
	<path class="st1" d="M27.9,20.6c0.9,0,1.5,0.5,1.5,1.5c0,0.9-0.6,1.4-1.4,1.4l1.4,2.1H29l-1.4-2.1h-1.1v2.1h-0.4v-5H27.9
		 M26.5,23.1h1.4c0.7,0,1.1-0.4,1.1-1.1c0-0.6-0.4-1.1-1.1-1.1h-1.4V23.1 M27.9,20.3h-1.9h-0.3v0.3v5v0.3h0.3h0.4h0.3v-0.3v-1.7h0.6
		l1.3,1.9l0.1,0.1H29h0.5h0.6l-0.4-0.5l-1.2-1.7c0.7-0.2,1.2-0.9,1.2-1.7C29.8,21,29,20.3,27.9,20.3L27.9,20.3z M26.8,21.3h1.1
		c0.5,0,0.8,0.3,0.8,0.7c0,0.5-0.3,0.7-0.8,0.7h-1.1V21.3L26.8,21.3z"/>
</g>
</svg>
