<?xml version="1.0" encoding="utf-8"?>
<!-- Generator: Adobe Illustrator 19.1.0, SVG Export Plug-In . SVG Version: 6.00 Build 0)  -->
<!DOCTYPE svg PUBLIC "-//W3C//DTD SVG 1.1//EN" "http://www.w3.org/Graphics/SVG/1.1/DTD/svg11.dtd">
<svg version="1.1" id="Layer_1" xmlns="http://www.w3.org/2000/svg" xmlns:xlink="http://www.w3.org/1999/xlink" x="0px" y="0px"
	 viewBox="-175 177 48 48" style="enable-background:new -175 177 48 48;" xml:space="preserve">
<style type="text/css">
	.st0{fill:#FFFFFF;}
</style>
<path class="st0" d="M-138.7,193.6c-0.3,0.6-0.7,1-1.1,1.4c-0.4,0.4-0.9,0.9-1.4,1.1c0,0.1,0,0.1,0,0.3c0,0.1,0,0.3,0,0.4
	c0,1.3-0.1,2.7-0.6,4c-0.4,1.3-1,2.7-1.9,3.9c-0.9,1.3-1.7,2.3-2.9,3.3s-2.4,1.7-4,2.3c-0.9,0.3-1.6,0.4-2.4,0.6
	c-0.9,0.1-1.7,0.1-2.6,0.1c-1.4,0-2.7-0.1-4-0.6c-1.3-0.4-2.6-1-3.7-1.7c0.1,0,0.4,0,0.6,0c0.1,0,0.4,0,0.6,0c1.1,0,2.3-0.1,3.3-0.6
	s2-0.9,3-1.6c-1.1,0-2.1-0.3-3-1c-0.9-0.7-1.4-1.4-1.7-2.4c0.1,0,0.3,0,0.4,0c0.1,0,0.3,0,0.4,0c0.3,0,0.4,0,0.7,0
	c0.3,0,0.4-0.1,0.7-0.1c-1.1-0.3-2.1-0.9-2.9-1.7c-0.7-0.9-1.1-2-1.1-3.1l0,0c0.3,0.1,0.7,0.3,1.1,0.4c0.4,0.1,0.7,0.1,1.1,0.1
	c-0.7-0.4-1.3-1-1.6-1.9c-0.4-0.7-0.6-1.6-0.6-2.4c0-0.4,0-0.9,0.1-1.3c0.1-0.4,0.3-0.9,0.6-1.3c1.3,1.6,2.9,2.9,4.6,3.7
	c1.9,1,3.7,1.4,5.9,1.6c0-0.1-0.1-0.4-0.1-0.6c0-0.1,0-0.4,0-0.6c0-1.4,0.4-2.6,1.4-3.6s2.1-1.4,3.6-1.4c0.7,0,1.4,0.1,2,0.4
	c0.6,0.3,1.1,0.7,1.7,1.1c0.6-0.1,1.1-0.3,1.7-0.4s1-0.4,1.6-0.7c-0.1,0.6-0.4,1.1-0.9,1.6c-0.4,0.4-0.9,0.9-1.4,1.1
	c0.4,0,1-0.1,1.4-0.3C-139.6,193.9-139.1,193.7-138.7,193.6z"/>
</svg>
